<?xml version="1.0" encoding="utf-8"?>
<!-- Generator: Adobe Illustrator 23.0.1, SVG Export Plug-In . SVG Version: 6.00 Build 0)  -->
<svg version="1.1" id="Ebene_1" xmlns="http://www.w3.org/2000/svg" xmlns:xlink="http://www.w3.org/1999/xlink" x="0px" y="0px"
	 viewBox="0 0 300 400" width="300px" height="400px" style="enable-background:new 0 0 300 400;" xml:space="preserve">
<style type="text/css">
	.st0{clip-path:url(#SVGID_2_);fill:#74B780;}
	.st1{clip-path:url(#SVGID_4_);fill:#FFFFFF;}
	.st2{clip-path:url(#SVGID_6_);fill:#FFFFFF;}
	.st3{clip-path:url(#SVGID_8_);fill:#CB6969;}
	.st4{clip-path:url(#SVGID_10_);fill:#FFFFFF;}
	.st5{clip-path:url(#SVGID_12_);fill:#C4C4C4;}
	.st6{fill:none;stroke:#FFFFFF;stroke-width:2;stroke-miterlimit:10;}
	.st7{clip-path:url(#SVGID_14_);enable-background:new    ;}
	.st8{clip-path:url(#SVGID_16_);}
	.st9{clip-path:url(#SVGID_18_);fill:none;stroke:#C4C4C4;stroke-width:2;stroke-miterlimit:10;}
	.st10{clip-path:url(#SVGID_20_);fill:#FFFFFF;}
	.st11{fill:#212121;}
	.st12{font-family:'ArialMT';}
	.st13{font-size:18px;}
	.st14{clip-path:url(#SVGID_22_);fill:#FEBF02;}
	.st15{fill:none;stroke:#BB944F;stroke-miterlimit:10;}
	.st16{clip-path:url(#SVGID_24_);fill:#FFFFFF;}
	.st17{clip-path:url(#SVGID_26_);}
	.st18{font-size:25px;}
	.st19{clip-path:url(#SVGID_28_);}
	.st20{clip-path:url(#SVGID_30_);fill:#32374B;}
	.st21{clip-path:url(#SVGID_32_);}
	.st22{clip-path:url(#SVGID_34_);fill:#32374B;}
	.st23{clip-path:url(#SVGID_36_);enable-background:new    ;}
	.st24{clip-path:url(#SVGID_38_);}
	.st25{clip-path:url(#SVGID_40_);fill:none;stroke:#C4C4C4;stroke-width:2;stroke-miterlimit:10;}
	.st26{clip-path:url(#SVGID_42_);}
	.st27{clip-path:url(#SVGID_44_);fill:#FEBF02;}
	.st28{clip-path:url(#SVGID_46_);fill:none;stroke:#BB944F;stroke-miterlimit:10;}
	.st29{clip-path:url(#SVGID_48_);}
	.st30{clip-path:url(#SVGID_50_);fill:#FEBF02;}
	.st31{clip-path:url(#SVGID_52_);fill:none;stroke:#BB944F;stroke-miterlimit:10;}
	.st32{clip-path:url(#SVGID_54_);}
	.st33{clip-path:url(#SVGID_56_);fill:#FEBF02;}
	.st34{clip-path:url(#SVGID_58_);fill:none;stroke:#BB944F;stroke-miterlimit:10;}
	.st35{clip-path:url(#SVGID_60_);}
	.st36{clip-path:url(#SVGID_62_);fill:#FEBF02;}
	.st37{clip-path:url(#SVGID_64_);fill:none;stroke:#BB944F;stroke-miterlimit:10;}
	.st38{clip-path:url(#SVGID_66_);}
	.st39{clip-path:url(#SVGID_68_);fill:#FEBF02;}
	.st40{clip-path:url(#SVGID_70_);fill:none;stroke:#BB944F;stroke-miterlimit:10;}
	.st41{clip-path:url(#SVGID_72_);fill:none;stroke:#BB944F;stroke-miterlimit:10;}
	.st42{clip-path:url(#SVGID_74_);fill:none;stroke:#BB944F;stroke-miterlimit:10;}
	.st43{clip-path:url(#SVGID_76_);fill:none;stroke:#BB944F;stroke-miterlimit:10;}
	.st44{clip-path:url(#SVGID_78_);fill:none;stroke:#BB944F;stroke-miterlimit:10;}
	.st45{clip-path:url(#SVGID_80_);fill:none;stroke:#BB944F;stroke-miterlimit:10;}
</style>
<g>
	<g>
		<g>
			<defs>
				<rect id="SVGID_1_" x="0.1" y="70" width="14" height="14"/>
			</defs>
			<clipPath id="SVGID_2_">
				<use xlink:href="#SVGID_1_"  style="overflow:visible;"/>
			</clipPath>
			<rect x="-4.9" y="65" class="st0" width="24" height="24"/>
		</g>
	</g>
	<g>
		<g>
			<defs>
				<rect id="SVGID_3_" x="6.1" y="72" width="2" height="10"/>
			</defs>
			<clipPath id="SVGID_4_">
				<use xlink:href="#SVGID_3_"  style="overflow:visible;"/>
			</clipPath>
			<rect x="1.1" y="67" class="st1" width="12" height="20"/>
		</g>
	</g>
	<g>
		<g>
			<defs>
				<rect id="SVGID_5_" x="2.1" y="76" width="10" height="2"/>
			</defs>
			<clipPath id="SVGID_6_">
				<use xlink:href="#SVGID_5_"  style="overflow:visible;"/>
			</clipPath>
			<rect x="-2.9" y="71" class="st2" width="20" height="12"/>
		</g>
	</g>
</g>
<g>
	<g>
		<g>
			<defs>
				<rect id="SVGID_7_" x="43.3" y="70" width="14" height="14"/>
			</defs>
			<clipPath id="SVGID_8_">
				<use xlink:href="#SVGID_7_"  style="overflow:visible;"/>
			</clipPath>
			<rect x="38.3" y="65" class="st3" width="24" height="24"/>
		</g>
	</g>
	<g>
		<g>
			<defs>
				<rect id="SVGID_9_" x="45.3" y="76" width="10" height="2"/>
			</defs>
			<clipPath id="SVGID_10_">
				<use xlink:href="#SVGID_9_"  style="overflow:visible;"/>
			</clipPath>
			<rect x="40.3" y="71" class="st4" width="20" height="12"/>
		</g>
	</g>
</g>
<g>
	<g>
		<g>
			<defs>
				<rect id="SVGID_11_" x="20.8" y="70" width="14" height="14"/>
			</defs>
			<clipPath id="SVGID_12_">
				<use xlink:href="#SVGID_11_"  style="overflow:visible;"/>
			</clipPath>
			<rect x="15.8" y="65" class="st5" width="24" height="24"/>
		</g>
	</g>
	<polyline class="st6" points="23.8,75.3 28,80.1 32.3,72.7 	"/>
</g>
<g>
	<g>
		<defs>
			<polyline id="SVGID_13_" points="26,42.7 13.3,55.4 0.6,42.7 			"/>
		</defs>
		<clipPath id="SVGID_14_">
			<use xlink:href="#SVGID_13_"  style="overflow:visible;"/>
		</clipPath>
		<g class="st7">
			<g>
				<g>
					<defs>
						<rect id="SVGID_15_" x="0.6" y="27.9" width="26" height="42"/>
					</defs>
					<clipPath id="SVGID_16_">
						<use xlink:href="#SVGID_15_"  style="overflow:visible;"/>
					</clipPath>
					<g class="st8">
						<g>
							<defs>
								<rect id="SVGID_17_" x="0.6" y="41.9" width="26" height="14"/>
							</defs>
							<clipPath id="SVGID_18_">
								<use xlink:href="#SVGID_17_"  style="overflow:visible;"/>
							</clipPath>
							<polyline class="st9" points="26,42.7 13.3,55.4 0.6,42.7 							"/>
						</g>
					</g>
				</g>
			</g>
		</g>
	</g>
</g>
<g>
	<g>
		<defs>
			<circle id="SVGID_19_" cx="46.5" cy="141.9" r="10.5"/>
		</defs>
		<clipPath id="SVGID_20_">
			<use xlink:href="#SVGID_19_"  style="overflow:visible;"/>
		</clipPath>
		<rect x="31" y="126.4" class="st10" width="31" height="31"/>
	</g>
</g>
<text transform="matrix(1 0 0 1 44.5467 148.4019)" class="st11 st12 st13">i</text>
<g>
	<g>
		<g>
			<defs>
				<polygon id="SVGID_21_" points="8.1,110.9 3.7,113.3 4.6,108.3 1,104.9 5.9,104.2 8.1,99.7 10.3,104.2 15.3,104.9 11.7,108.3 
					12.5,113.3 				"/>
			</defs>
			<clipPath id="SVGID_22_">
				<use xlink:href="#SVGID_21_"  style="overflow:visible;"/>
			</clipPath>
			<rect x="-4" y="94.7" class="st14" width="24.3" height="23.6"/>
		</g>
	</g>
	<polygon class="st15" points="8.1,110.9 3.7,113.3 4.6,108.3 1,104.9 5.9,104.2 8.1,99.7 10.3,104.2 15.3,104.9 11.7,108.3 
		12.5,113.3 	"/>
</g>
<polygon class="st15" points="27.1,110.9 22.7,113.3 23.5,108.3 20,104.9 24.9,104.2 27.1,99.7 29.3,104.2 34.2,104.9 30.7,108.3 
	31.5,113.3 "/>
<g>
	<g>
		<defs>
			<circle id="SVGID_23_" cx="13.5" cy="143" r="13.5"/>
		</defs>
		<clipPath id="SVGID_24_">
			<use xlink:href="#SVGID_23_"  style="overflow:visible;"/>
		</clipPath>
		<rect x="-5" y="124.5" class="st16" width="37" height="37"/>
	</g>
</g>
<g>
	<g>
		<defs>
			<rect id="SVGID_25_" y="129.5" width="27" height="27"/>
		</defs>
		<clipPath id="SVGID_26_">
			<use xlink:href="#SVGID_25_"  style="overflow:visible;"/>
		</clipPath>
		<g class="st17">
			<text transform="matrix(1 0 0 1 10.7326 151.5281)" class="st11 st12 st18">i</text>
		</g>
	</g>
</g>
<g>
	<g>
		<g>
			<defs>
				
					<rect id="SVGID_27_" x="-1.8" y="175.5" transform="matrix(0.7071 -0.7071 0.7071 0.7071 -122.7708 56.7528)" width="17.9" height="2.1"/>
			</defs>
			<clipPath id="SVGID_28_">
				<use xlink:href="#SVGID_27_"  style="overflow:visible;"/>
			</clipPath>
			<g class="st19">
				<g>
					<defs>
						
							<rect id="SVGID_29_" x="609.4" y="-416.3" transform="matrix(0.7071 -0.7071 0.7071 0.7071 -564.9847 871.4541)" width="320" height="3068"/>
					</defs>
					<clipPath id="SVGID_30_">
						<use xlink:href="#SVGID_29_"  style="overflow:visible;"/>
					</clipPath>
					
						<rect x="-6.8" y="170.5" transform="matrix(0.7071 -0.7071 0.7071 0.7071 -122.7708 56.7528)" class="st20" width="27.9" height="12.1"/>
				</g>
			</g>
		</g>
	</g>
	<g>
		<g>
			<defs>
				
					<rect id="SVGID_31_" x="6.1" y="167.7" transform="matrix(0.7071 -0.7071 0.7071 0.7071 -122.8 56.8235)" width="2.1" height="17.9"/>
			</defs>
			<clipPath id="SVGID_32_">
				<use xlink:href="#SVGID_31_"  style="overflow:visible;"/>
			</clipPath>
			<g class="st21">
				<g>
					<defs>
						
							<rect id="SVGID_33_" x="609.4" y="-416.3" transform="matrix(0.7071 -0.7071 0.7071 0.7071 -564.9847 871.4541)" width="320" height="3068"/>
					</defs>
					<clipPath id="SVGID_34_">
						<use xlink:href="#SVGID_33_"  style="overflow:visible;"/>
					</clipPath>
					
						<rect x="1.1" y="162.7" transform="matrix(0.7071 -0.7071 0.7071 0.7071 -122.8001 56.8235)" class="st22" width="12.1" height="27.9"/>
				</g>
			</g>
		</g>
	</g>
</g>
<g>
	<g>
		<defs>
			<polyline id="SVGID_35_" points="57.9,42.7 45.2,55.4 32.4,42.7 			"/>
		</defs>
		<clipPath id="SVGID_36_">
			<use xlink:href="#SVGID_35_"  style="overflow:visible;"/>
		</clipPath>
		<g class="st23">
			<g>
				<g>
					<defs>
						<rect id="SVGID_37_" x="32.4" y="28" width="26" height="42"/>
					</defs>
					<clipPath id="SVGID_38_">
						<use xlink:href="#SVGID_37_"  style="overflow:visible;"/>
					</clipPath>
					<g class="st24">
						<g>
							<defs>
								<rect id="SVGID_39_" x="32.4" y="42" width="26" height="14"/>
							</defs>
							<clipPath id="SVGID_40_">
								<use xlink:href="#SVGID_39_"  style="overflow:visible;"/>
							</clipPath>
							<polyline class="st25" points="57.9,42.7 45.2,55.4 32.4,42.7 							"/>
						</g>
					</g>
				</g>
			</g>
		</g>
	</g>
</g>
<g>
	<defs>
		<polygon id="SVGID_41_" points="9.1,219.6 4.7,221.9 5.5,217 2,213.5 6.9,212.8 9.1,208.3 11.3,212.8 16.2,213.5 12.7,217 
			13.5,221.9 		"/>
	</defs>
	<clipPath id="SVGID_42_">
		<use xlink:href="#SVGID_41_"  style="overflow:visible;"/>
	</clipPath>
	<g class="st26">
		<defs>
			<rect id="SVGID_43_" x="0.6" y="206.3" width="17" height="17"/>
		</defs>
		<clipPath id="SVGID_44_">
			<use xlink:href="#SVGID_43_"  style="overflow:visible;"/>
		</clipPath>
		<rect x="-3" y="203.3" class="st27" width="24.3" height="23.6"/>
	</g>
</g>
<g>
	<defs>
		<rect id="SVGID_45_" x="0.6" y="206.3" width="17" height="17"/>
	</defs>
	<clipPath id="SVGID_46_">
		<use xlink:href="#SVGID_45_"  style="overflow:visible;"/>
	</clipPath>
	<polygon class="st28" points="9.1,219.6 4.7,221.9 5.5,217 2,213.5 6.9,212.8 9.1,208.3 11.3,212.8 16.2,213.5 12.7,217 
		13.5,221.9 	"/>
</g>
<g>
	<defs>
		<polygon id="SVGID_47_" points="27.1,219.6 22.7,221.9 23.5,217 20,213.5 24.9,212.8 27.1,208.3 29.3,212.8 34.2,213.5 30.7,217 
			31.5,221.9 		"/>
	</defs>
	<clipPath id="SVGID_48_">
		<use xlink:href="#SVGID_47_"  style="overflow:visible;"/>
	</clipPath>
	<g class="st29">
		<defs>
			<rect id="SVGID_49_" x="18.6" y="206.3" width="17" height="17"/>
		</defs>
		<clipPath id="SVGID_50_">
			<use xlink:href="#SVGID_49_"  style="overflow:visible;"/>
		</clipPath>
		<rect x="15" y="203.3" class="st30" width="24.3" height="23.6"/>
	</g>
</g>
<g>
	<defs>
		<rect id="SVGID_51_" x="18.6" y="206.3" width="17" height="17"/>
	</defs>
	<clipPath id="SVGID_52_">
		<use xlink:href="#SVGID_51_"  style="overflow:visible;"/>
	</clipPath>
	<polygon class="st31" points="27.1,219.6 22.7,221.9 23.5,217 20,213.5 24.9,212.8 27.1,208.3 29.3,212.8 34.2,213.5 30.7,217 
		31.5,221.9 	"/>
</g>
<g>
	<defs>
		<polygon id="SVGID_53_" points="45.1,219.6 40.7,221.9 41.5,217 38,213.5 42.9,212.8 45.1,208.3 47.3,212.8 52.2,213.5 48.7,217 
			49.5,221.9 		"/>
	</defs>
	<clipPath id="SVGID_54_">
		<use xlink:href="#SVGID_53_"  style="overflow:visible;"/>
	</clipPath>
	<g class="st32">
		<defs>
			<rect id="SVGID_55_" x="36.6" y="206.3" width="17" height="17"/>
		</defs>
		<clipPath id="SVGID_56_">
			<use xlink:href="#SVGID_55_"  style="overflow:visible;"/>
		</clipPath>
		<rect x="33" y="203.3" class="st33" width="24.3" height="23.6"/>
	</g>
</g>
<g>
	<defs>
		<rect id="SVGID_57_" x="36.6" y="206.3" width="17" height="17"/>
	</defs>
	<clipPath id="SVGID_58_">
		<use xlink:href="#SVGID_57_"  style="overflow:visible;"/>
	</clipPath>
	<polygon class="st34" points="45.1,219.6 40.7,221.9 41.5,217 38,213.5 42.9,212.8 45.1,208.3 47.3,212.8 52.2,213.5 48.7,217 
		49.5,221.9 	"/>
</g>
<g>
	<defs>
		<polygon id="SVGID_59_" points="63.1,219.6 58.7,221.9 59.5,217 56,213.5 60.9,212.8 63.1,208.3 65.3,212.8 70.2,213.5 66.7,217 
			67.5,221.9 		"/>
	</defs>
	<clipPath id="SVGID_60_">
		<use xlink:href="#SVGID_59_"  style="overflow:visible;"/>
	</clipPath>
	<g class="st35">
		<defs>
			<rect id="SVGID_61_" x="54.6" y="206.3" width="17" height="17"/>
		</defs>
		<clipPath id="SVGID_62_">
			<use xlink:href="#SVGID_61_"  style="overflow:visible;"/>
		</clipPath>
		<rect x="51" y="203.3" class="st36" width="24.3" height="23.6"/>
	</g>
</g>
<g>
	<defs>
		<rect id="SVGID_63_" x="54.6" y="206.3" width="17" height="17"/>
	</defs>
	<clipPath id="SVGID_64_">
		<use xlink:href="#SVGID_63_"  style="overflow:visible;"/>
	</clipPath>
	<polygon class="st37" points="63.1,219.6 58.7,221.9 59.5,217 56,213.5 60.9,212.8 63.1,208.3 65.3,212.8 70.2,213.5 66.7,217 
		67.5,221.9 	"/>
</g>
<g>
	<defs>
		<polygon id="SVGID_65_" points="81.1,219.6 76.7,221.9 77.5,217 74,213.5 78.9,212.8 81.1,208.3 83.3,212.8 88.2,213.5 84.7,217 
			85.5,221.9 		"/>
	</defs>
	<clipPath id="SVGID_66_">
		<use xlink:href="#SVGID_65_"  style="overflow:visible;"/>
	</clipPath>
	<g class="st38">
		<defs>
			<rect id="SVGID_67_" x="72.6" y="206.3" width="17" height="17"/>
		</defs>
		<clipPath id="SVGID_68_">
			<use xlink:href="#SVGID_67_"  style="overflow:visible;"/>
		</clipPath>
		<rect x="69" y="203.3" class="st39" width="24.3" height="23.6"/>
	</g>
</g>
<g>
	<defs>
		<rect id="SVGID_69_" x="72.6" y="206.3" width="17" height="17"/>
	</defs>
	<clipPath id="SVGID_70_">
		<use xlink:href="#SVGID_69_"  style="overflow:visible;"/>
	</clipPath>
	<polygon class="st40" points="81.1,219.6 76.7,221.9 77.5,217 74,213.5 78.9,212.8 81.1,208.3 83.3,212.8 88.2,213.5 84.7,217 
		85.5,221.9 	"/>
</g>
<g>
	<defs>
		<rect id="SVGID_71_" x="0.6" y="237.3" width="17" height="17"/>
	</defs>
	<clipPath id="SVGID_72_">
		<use xlink:href="#SVGID_71_"  style="overflow:visible;"/>
	</clipPath>
	<polygon class="st41" points="9.1,250.6 4.7,252.9 5.5,248 2,244.5 6.9,243.8 9.1,239.3 11.3,243.8 16.2,244.5 12.7,248 
		13.5,252.9 	"/>
</g>
<g>
	<defs>
		<rect id="SVGID_73_" x="18.6" y="237.3" width="17" height="17"/>
	</defs>
	<clipPath id="SVGID_74_">
		<use xlink:href="#SVGID_73_"  style="overflow:visible;"/>
	</clipPath>
	<polygon class="st42" points="27.1,250.6 22.7,252.9 23.5,248 20,244.5 24.9,243.8 27.1,239.3 29.3,243.8 34.2,244.5 30.7,248 
		31.5,252.9 	"/>
</g>
<g>
	<defs>
		<rect id="SVGID_75_" x="36.6" y="237.3" width="17" height="17"/>
	</defs>
	<clipPath id="SVGID_76_">
		<use xlink:href="#SVGID_75_"  style="overflow:visible;"/>
	</clipPath>
	<polygon class="st43" points="45.1,250.6 40.7,252.9 41.5,248 38,244.5 42.9,243.8 45.1,239.3 47.3,243.8 52.2,244.5 48.7,248 
		49.5,252.9 	"/>
</g>
<g>
	<defs>
		<rect id="SVGID_77_" x="54.6" y="237.3" width="17" height="17"/>
	</defs>
	<clipPath id="SVGID_78_">
		<use xlink:href="#SVGID_77_"  style="overflow:visible;"/>
	</clipPath>
	<polygon class="st44" points="63.1,250.6 58.7,252.9 59.5,248 56,244.5 60.9,243.8 63.1,239.3 65.3,243.8 70.2,244.5 66.7,248 
		67.5,252.9 	"/>
</g>
<g>
	<defs>
		<rect id="SVGID_79_" x="72.6" y="237.3" width="17" height="17"/>
	</defs>
	<clipPath id="SVGID_80_">
		<use xlink:href="#SVGID_79_"  style="overflow:visible;"/>
	</clipPath>
	<polygon class="st45" points="81.1,250.6 76.7,252.9 77.5,248 74,244.5 78.9,243.8 81.1,239.3 83.3,243.8 88.2,244.5 84.7,248 
		85.5,252.9 	"/>
</g>
</svg>
