<?xml version="1.0" encoding="utf-8"?>
<!-- Generator: Adobe Illustrator 23.0.1, SVG Export Plug-In . SVG Version: 6.00 Build 0)  -->
<svg version="1.1" id="Ebene_1" xmlns="http://www.w3.org/2000/svg" xmlns:xlink="http://www.w3.org/1999/xlink" x="0px" y="0px"
	 viewBox="0 0 300 400" style="enable-background:new 0 0 300 400;" width="300" height="400" xml:space="preserve">
<style type="text/css">
	.st0{fill:#FFFFFF;}
	.st1{fill:#AAAAAA;}
	.st2{opacity:0.75;}
	.st3{fill:#C35A58;}
	.st4{fill:#4FAE32;}
</style>
<g>
	<polygon class="st0" points="14.1,28 0,14 14.1,0 16,1.8 3.7,14 16,26.2 	"/>
</g>
<g>
	<polygon class="st0" points="23.2,0 37.3,14 23.2,28 21.3,26.2 33.6,14 21.3,1.8 	"/>
</g>
<g>
	<polygon class="st0" points="41.6,14.1 55.6,0 69.6,14.1 67.8,16 55.6,3.7 43.4,16 	"/>
</g>
<g>
	<polygon class="st0" points="101.9,1.8 87.9,15.9 73.9,1.8 75.7,-0.1 87.9,12.2 100.1,-0.1 	"/>
</g>
<g>
	<polygon class="st1" points="124.1,28 110,14 124.1,0 126,1.8 113.7,14 126,26.2 	"/>
</g>
<g>
	<polygon class="st1" points="133.2,0 147.3,14 133.2,28 131.3,26.2 143.6,14 131.3,1.8 	"/>
</g>
<g>
	<polygon class="st1" points="151.6,14.1 165.6,0 179.6,14.1 177.8,16 165.6,3.7 153.4,16 	"/>
</g>
<g>
	<polygon class="st1" points="211.9,1.8 197.9,15.9 183.9,1.8 185.7,-0.1 197.9,12.2 210.1,-0.1 	"/>
</g>
<g>
	<path class="st0" d="M6.3,38.9l-3.6,1.2C4.7,36.3,8.6,34,13,34c4.6,0,8.8,2.7,10.7,7l0.9-0.4C22.6,36,18.1,33,13,33
		c-4.8,0-9.2,2.7-11.3,6.9L1,35.7l-1,0.1l0.9,5.9l5.7-1.9L6.3,38.9z"/>
	<path class="st0" d="M26,54.4l-0.9-5.9l-5.7,1.9l0.3,0.9l3.8-1.3c-1.9,4.2-6,6.9-10.6,6.9C8.2,57,4,54.2,2.2,50l-0.9,0.4
		C3.3,55,7.8,58,12.9,58c5,0,9.5-2.9,11.5-7.4l0.6,4L26,54.4z M24.2,49.9h0.1V50L24.2,49.9z"/>
</g>
<g>
	<path class="st1" d="M36.5,38.9l-3.6,1.2c2-3.8,5.9-6.1,10.3-6.1c4.6,0,8.8,2.7,10.7,7l0.9-0.4c-2-4.6-6.5-7.6-11.6-7.6
		c-4.8,0-9.2,2.7-11.3,6.9l-0.7-4.2l-1,0.1l0.9,5.9l5.7-1.9L36.5,38.9z"/>
	<path class="st1" d="M56.2,54.4l-0.9-5.9l-5.7,1.9l0.3,0.9l3.8-1.3c-1.9,4.2-6,6.9-10.6,6.9c-4.7,0.1-8.9-2.7-10.7-6.9l-0.9,0.4
		C33.5,55,38,58,43.1,58c5,0,9.5-2.9,11.5-7.4l0.6,4L56.2,54.4z M54.4,49.9L54.4,49.9L54.4,49.9L54.4,49.9z"/>
</g>
<g class="st2">
	<polygon class="st0" points="4,72.7 0,68.4 0.7,67.8 4.1,71.3 12.7,63 13.3,63.7 	"/>
</g>
<g>
	<polygon class="st1" points="22.5,72.6 18.4,68.4 19.2,67.7 22.5,71.2 31.1,63 31.8,63.7 	"/>
</g>
<g>
	<polygon class="st1" points="6.9,111.7 8.8,116.2 13.8,116.6 10,119.9 11.2,124.7 6.9,122.1 2.6,124.7 3.8,119.9 0,116.6 5,116.2 	
		"/>
	<polygon class="st1" points="23.4,111.7 25.4,116.2 30.3,116.6 26.5,119.9 27.7,124.7 23.4,122.1 19.2,124.7 20.3,119.9 
		16.5,116.6 21.5,116.2 	"/>
	<polygon class="st1" points="40,111.7 41.9,116.2 46.9,116.6 43.1,119.9 44.3,124.7 40,122.1 35.7,124.7 36.9,119.9 33.1,116.6 
		38.1,116.2 	"/>
	<polygon class="st1" points="56.5,111.7 58.5,116.2 63.4,116.6 59.6,119.9 60.8,124.7 56.5,122.1 52.3,124.7 53.4,119.9 
		49.6,116.6 54.6,116.2 	"/>
	<polygon class="st1" points="73.1,111.7 75,116.2 80,116.6 76.2,119.9 77.4,124.7 73.1,122.1 68.8,124.7 70,119.9 66.2,116.6 
		71.2,116.2 	"/>
</g>
<g>
	<polygon class="st3" points="6.9,129.7 8.8,134.2 13.8,134.6 10,137.9 11.2,142.7 6.9,140.1 2.6,142.7 3.8,137.9 0,134.6 5,134.2 	
		"/>
	<polygon class="st3" points="23.4,129.7 25.4,134.2 30.3,134.6 26.5,137.9 27.7,142.7 23.4,140.1 19.2,142.7 20.3,137.9 
		16.5,134.6 21.5,134.2 	"/>
	<polygon class="st3" points="40,129.7 41.9,134.2 46.9,134.6 43.1,137.9 44.3,142.7 40,140.1 35.7,142.7 36.9,137.9 33.1,134.6 
		38.1,134.2 	"/>
	<polygon class="st3" points="56.5,129.7 58.5,134.2 63.4,134.6 59.6,137.9 60.8,142.7 56.5,140.1 52.3,142.7 53.4,137.9 
		49.6,134.6 54.6,134.2 	"/>
	<polygon class="st3" points="73.1,129.7 75,134.2 80,134.6 76.2,137.9 77.4,142.7 73.1,140.1 68.8,142.7 70,137.9 66.2,134.6 
		71.2,134.2 	"/>
</g>
<g>
	<g>
		<path class="st4" d="M9,95.7c-5,0-9-4-9-9s4-9,9-9s9,4,9,9C18,91.6,14,95.7,9,95.7z"/>
	</g>
	<g>
		<polygon class="st0" points="7.2,90.8 4,87.6 5.3,86.4 7.2,88.4 12.7,83.1 13.9,84.3 		"/>
	</g>
</g>
<g>
	<g>
		<path class="st3" d="M31.9,95.7c-5,0-9-4-9-9s4-9,9-9s9,4,9,9C40.9,91.6,36.9,95.7,31.9,95.7z"/>
	</g>
</g>
<g>
	<g>
		<path class="st1" d="M54.9,95.7c-5,0-9-4-9-9s4-9,9-9s9,4,9,9C63.9,91.6,59.8,95.7,54.9,95.7z"/>
	</g>
	<g>
		<polygon class="st0" points="53,90.8 49.9,87.6 51.1,86.4 53.1,88.4 58.6,83.1 59.8,84.3 		"/>
	</g>
</g>
<polygon class="st0" points="35.8,84.3 34.6,83.1 31.9,85.8 29.3,83.1 28.1,84.3 30.7,87 28.1,89.6 29.3,90.8 31.9,88.2 34.6,90.8 
	35.8,89.6 33.1,87 "/>
<g>
	<polygon class="st0" points="5.5,106.7 0,101.4 0.7,100.7 5.5,105.3 10.3,100.7 11,101.4 	"/>
</g>
<g>
	<polygon class="st0" points="21.5,100.7 27,106 26.2,106.7 21.5,102.1 16.7,106.7 16,106 	"/>
</g>
<g>
	<polygon class="st1" points="37.4,106.7 31.9,101.4 32.6,100.7 37.4,105.3 42.2,100.7 42.9,101.4 	"/>
</g>
<g>
	<polygon class="st1" points="53.4,100.7 58.9,106 58.2,106.7 53.4,102.1 48.6,106.7 47.9,106 	"/>
</g>
<g>
	<g>
		<path class="st0" d="M10.3,147.7c-5.5,0-10,4.5-10,10s4.5,10,10,10s10-4.5,10-10S15.8,147.7,10.3,147.7z M11.2,163.5H9.4v-8.4h1.8
			V163.5z M11,153.6c-0.2,0.2-0.4,0.3-0.7,0.3s-0.6-0.1-0.7-0.3c-0.2-0.2-0.3-0.4-0.3-0.7s0.1-0.6,0.3-0.7c0.2-0.2,0.4-0.3,0.7-0.3
			s0.6,0.1,0.7,0.3c0.2,0.2,0.3,0.4,0.3,0.7C11.3,153.2,11.2,153.4,11,153.6z"/>
	</g>
</g>
<g>
	<g>
		<path class="st1" d="M34,147.7c-5.5,0-10,4.5-10,10s4.5,10,10,10s10-4.5,10-10S39.5,147.7,34,147.7z M34.9,163.5h-1.8v-8.4h1.8
			V163.5z M34.7,153.6c-0.2,0.2-0.4,0.3-0.7,0.3c-0.3,0-0.6-0.1-0.7-0.3c-0.2-0.2-0.3-0.4-0.3-0.7s0.1-0.6,0.3-0.7
			c0.2-0.2,0.4-0.3,0.7-0.3c0.3,0,0.6,0.1,0.7,0.3c0.2,0.2,0.3,0.4,0.3,0.7C35,153.2,34.9,153.4,34.7,153.6z"/>
	</g>
</g>
<g>
	<path class="st0" d="M3,187.1c-1.4,0-2.5-1.1-2.5-2.5v-8.9c0-1.4,1.1-2.5,2.5-2.5h9c1.4,0,2.5,1.1,2.5,2.5v8.9
		c0,1.4-1.1,2.5-2.5,2.5H3z"/>
	<path class="st1" d="M12,173.6c1.1,0,2,0.9,2,2v8.9c0,1.1-0.9,2-2,2H3c-1.1,0-2-0.9-2-2v-8.9c0-1.1,0.9-2,2-2H12 M12,172.6H3
		c-1.7,0-3,1.4-3,3v8.9c0,1.7,1.4,3,3,3h9c1.7,0,3-1.4,3-3v-8.9C15,174,13.6,172.6,12,172.6L12,172.6z"/>
</g>
<g>
	<path class="st0" d="M23,187.1c-1.4,0-2.5-1.1-2.5-2.5v-8.9c0-1.4,1.1-2.5,2.5-2.5h9c1.4,0,2.5,1.1,2.5,2.5v8.9
		c0,1.4-1.1,2.5-2.5,2.5H23z"/>
	<path class="st1" d="M32,173.6c1.1,0,2,0.9,2,2v8.9c0,1.1-0.9,2-2,2h-9c-1.1,0-2-0.9-2-2v-8.9c0-1.1,0.9-2,2-2H32 M32,172.6h-9
		c-1.7,0-3,1.4-3,3v8.9c0,1.7,1.4,3,3,3h9c1.7,0,3-1.4,3-3v-8.9C35,174,33.6,172.6,32,172.6L32,172.6z"/>
</g>
<g>
	<polygon class="st3" points="26.3,184.2 23.1,181.1 24.4,179.6 26.2,181.3 30.5,176.7 32,178.1 	"/>
</g>
<g>
	<polygon class="st3" points="43,184.2 39.8,181.1 41.1,179.6 42.9,181.3 47.2,176.7 48.7,178.1 	"/>
</g>
<g>
	<g>
		<path class="st1" d="M7.5,207.4c-4.1,0-7.5-3.4-7.5-7.5s3.4-7.5,7.5-7.5s7.5,3.4,7.5,7.5S11.6,207.4,7.5,207.4z M7.5,193.3
			c-3.6,0-6.6,2.9-6.6,6.6s2.9,6.6,6.6,6.6s6.6-2.9,6.6-6.6S11.1,193.3,7.5,193.3z"/>
	</g>
	<g>
		<circle class="st0" cx="7.5" cy="199.9" r="6.6"/>
	</g>
</g>
<g>
	<g>
		<path class="st1" d="M27.5,207.4c-4.1,0-7.5-3.4-7.5-7.5s3.4-7.5,7.5-7.5s7.5,3.4,7.5,7.5S31.7,207.4,27.5,207.4z M27.5,193.3
			c-3.6,0-6.6,2.9-6.6,6.6s2.9,6.6,6.6,6.6s6.6-2.9,6.6-6.6S31.2,193.3,27.5,193.3z"/>
	</g>
	<g>
		<circle class="st0" cx="27.5" cy="199.9" r="6.6"/>
	</g>
</g>
<g>
	<circle class="st3" cx="27.5" cy="199.9" r="2.4"/>
</g>
<g>
	<circle class="st3" cx="44.2" cy="199.9" r="2.4"/>
</g>
<g>
	<rect x="-1.5" y="217.3" transform="matrix(0.7071 0.7071 -0.7071 0.7071 156.1298 59.6919)" class="st0" width="15" height="2"/>
	
		<rect x="-1.5" y="217.3" transform="matrix(-0.7071 0.7071 -0.7071 -0.7071 164.6298 368.4308)" class="st0" width="15" height="2"/>
</g>
<g>
	<rect x="16.7" y="217.3" transform="matrix(0.7071 0.7071 -0.7071 0.7071 161.4686 46.8029)" class="st1" width="15" height="2"/>
	
		<rect x="16.7" y="217.3" transform="matrix(-0.7071 0.7071 -0.7071 -0.7071 195.7466 355.5417)" class="st1" width="15" height="2"/>
</g>
</svg>
